<?xml version="1.0" standalone="no"?>
<!DOCTYPE svg PUBLIC "-//W3C//DTD SVG 20010904//EN"
 "http://www.w3.org/TR/2001/REC-SVG-20010904/DTD/svg10.dtd">
<svg version="1.0" xmlns="http://www.w3.org/2000/svg"
 width="569.000000pt" height="290.000000pt" viewBox="0 0 569.000000 290.000000"
 preserveAspectRatio="xMidYMid meet">

<g transform="translate(0.000000,290.000000) scale(0.100000,-0.100000)"
fill="#000000" stroke="none">
<path d="M3957 2674 c-478 -61 -816 -294 -1021 -702 -26 -51 -56 -116 -67
-144 l-20 -51 28 6 c15 4 62 14 103 23 108 25 321 25 424 1 184 -44 322 -121
456 -256 194 -196 291 -435 290 -720 -1 -132 -18 -228 -64 -356 -20 -55 -36
-106 -36 -112 0 -10 143 -13 680 -13 374 0 680 2 680 5 0 7 -120 224 -342 620
-102 182 -340 609 -528 950 -421 761 -418 755 -435 755 -7 0 -19 2 -27 4 -7 2
-62 -3 -121 -10z"/>
<path d="M1568 2644 c-30 -48 -132 -230 -358 -644 -259 -472 -659 -1191 -776
-1396 -57 -99 -110 -196 -118 -216 l-15 -35 467 -5 c257 -4 563 -4 680 -1 190
5 213 8 208 22 -3 9 -21 60 -40 114 -55 151 -69 246 -63 417 6 165 23 241 87
378 53 113 112 193 213 288 134 126 281 203 458 239 101 21 342 16 453 -9 38
-9 71 -14 73 -13 4 5 -44 121 -84 202 -120 241 -316 440 -548 557 -170 86
-311 124 -496 135 l-117 6 -24 -39z"/>
<path d="M2600 1343 c-402 -707 -526 -926 -544 -960 l-17 -33 807 0 806 0 -60
113 c-32 61 -106 193 -164 292 -57 99 -205 360 -327 580 -123 220 -231 408
-240 418 -17 17 -29 -1 -261 -410z"/>
</g>
</svg>
